HIERARCHY
ROOT SpineBase
{
  OFFSET 0.000000 0.000000 0.000000
  CHANNELS 6 Xposition Yposition Zposition Zrotation Xrotation Yrotation
  JOINT SpineMid
  {
    OFFSET -0.000000 30.458360 0.000000
    CHANNELS 3 Zrotation Xrotation Yrotation
    JOINT SpineShoulder
    {
      OFFSET 0.181070 22.601845 -0.714034
      CHANNELS 3 Zrotation Xrotation Yrotation
      JOINT Neck
      {
        OFFSET 0.135638 7.476016 -0.552991
        CHANNELS 3 Zrotation Xrotation Yrotation
        JOINT Head
        {
          OFFSET 2.053103 13.289599 0.392759
          CHANNELS 3 Zrotation Xrotation Yrotation
          End Site
          {
            OFFSET 0 0 0
          }
        }
      }
      JOINT ShoulderLeft
      {
        OFFSET -15.510465 -2.581829 -6.242161
        CHANNELS 3 Zrotation Xrotation Yrotation
        JOINT ElbowLeft
        {
          OFFSET -6.201186 -27.880838 -1.093877
          CHANNELS 3 Zrotation Xrotation Yrotation
          JOINT WristLeft
          {
            OFFSET 0.257177 -20.856072 -2.087610
            CHANNELS 3 Zrotation Xrotation Yrotation
            JOINT HandLeft
            {
              OFFSET 1.011380 -4.742371 0.839522
              CHANNELS 3 Zrotation Xrotation Yrotation
              JOINT HandTipLeft
              {
                OFFSET 0.312489 -9.015853 0.129355
                CHANNELS 3 Zrotation Xrotation Yrotation
                End Site
                {
                  OFFSET 0 0 0
                }
              }
              JOINT ThumbLeft
              {
                OFFSET 4.882879 0.291099 -3.048376
                CHANNELS 3 Zrotation Xrotation Yrotation
                End Site
                {
                  OFFSET 0 0 0
                }
              }
            }
          }
        }
      }
      JOINT ShoulderRight
      {
        OFFSET 15.900036 -1.914331 7.325326
        CHANNELS 3 Zrotation Xrotation Yrotation
        JOINT ElbowRight
        {
          OFFSET 5.910604 -27.756202 2.758107
          CHANNELS 3 Zrotation Xrotation Yrotation
          JOINT WristRight
          {
            OFFSET 4.752844 -19.221480 -6.942551
            CHANNELS 3 Zrotation Xrotation Yrotation
            JOINT HandRight
            {
              OFFSET -1.325083 -7.595328 -2.937613
              CHANNELS 3 Zrotation Xrotation Yrotation
              JOINT HandTipRight
              {
                OFFSET 0.437315 -7.401965 -1.639718
                CHANNELS 3 Zrotation Xrotation Yrotation
                End Site
                {
                  OFFSET 0 0 0
                }
              }
              JOINT ThumbRight
              {
                OFFSET -2.765053 1.919174 -1.020181
                CHANNELS 3 Zrotation Xrotation Yrotation
                End Site
                {
                  OFFSET 0 0 0
                }
              }
            }
          }
        }
      }
    }
  }
  JOINT HipLeft
  {
    OFFSET -5.125961 1.483505 -6.427195
    CHANNELS 3 Zrotation Xrotation Yrotation
    JOINT KneeLeft
    {
      OFFSET -4.799674 -35.162193 -5.439237
      CHANNELS 3 Zrotation Xrotation Yrotation
      JOINT AnkleLeft
      {
        OFFSET -4.728517 -40.050566 13.348294
        CHANNELS 3 Zrotation Xrotation Yrotation
        JOINT FootLeft
        {
          OFFSET 5.892698 -1.929622 -14.601472
          CHANNELS 3 Zrotation Xrotation Yrotation
          End Site
          {
            OFFSET 0 0 0
          }
        }
      }
    }
  }
  JOINT HipRight
  {
    OFFSET 6.604796 0.352081 -0.508629
    CHANNELS 3 Zrotation Xrotation Yrotation
    JOINT KneeRight
    {
      OFFSET 1.165006 -36.792413 -0.066566
      CHANNELS 3 Zrotation Xrotation Yrotation
      JOINT AnkleRight
      {
        OFFSET 0.431034 -38.619900 9.076597
        CHANNELS 3 Zrotation Xrotation Yrotation
        JOINT FootRight
        {
          OFFSET 2.635534 -7.722949 -5.779709
          CHANNELS 3 Zrotation Xrotation Yrotation
          End Site
          {
            OFFSET 0 0 0
          }
        }
      }
    }
  }
}
MOTION
Frames: 6
Frame Time: 0.033333
-72.757543 82.783181 334.149602 0.000000 0.000000 -26.772500 -0.000000 0.000000 26.772500 -0.000000 0.000000 0.000000 -0.000000 0.000000 0.000000 0.000000 0.000000 0.000000 -0.000000 0.000000 0.000000 -0.000000 0.000000 0.000000 -0.000000 0.000000 0.000000 -0.000000 0.000000 0.000000 0.000000 0.000000 0.000000 0.000000 0.000000 0.000000 -0.000000 0.000000 0.000000 -0.000000 0.000000 0.000000 -0.000000 0.000000 0.000000 -0.000000 0.000000 0.000000 0.000000 0.000000 0.000000 0.000000 0.000000 0.000000 -0.000000 0.000000 26.772500 -0.000000 0.000000 0.000000 -0.000000 0.000000 0.000000 0.000000 0.000000 0.000000 -0.000000 0.000000 26.772500 -0.000000 0.000000 0.000000 -0.000000 0.000000 0.000000 0.000000 0.000000 0.000000
-73.835200 82.766077 334.322040 0.255235 -0.155715 -26.532732 -0.297912 0.025298 26.533145 -0.000000 0.000000 0.000000 -0.000000 0.000000 0.000000 0.000000 0.000000 0.000000 -0.000000 0.000000 0.000000 -0.000000 0.000000 0.000000 -6.218852 3.891319 -0.061391 6.237232 -3.861717 0.483341 0.000000 0.000000 0.000000 0.000000 0.000000 0.000000 -0.907860 0.269430 -0.030765 -0.174595 -1.642745 0.068951 1.659057 0.109697 -0.075040 -0.323148 2.588335 0.022763 0.000000 0.000000 0.000000 0.000000 0.000000 0.000000 0.487170 -1.812164 26.836781 1.238325 2.749517 -0.060475 -3.097963 -5.511259 0.031175 0.000000 0.000000 0.000000 1.629389 4.462683 26.549399 -4.380781 -3.856725 -0.397386 -0.797849 -0.520405 0.832569 0.000000 0.000000 0.000000
-74.837715 82.734342 334.494869 0.490951 -0.309203 -26.284337 -0.577113 0.059819 26.285963 -0.000000 0.000000 0.000000 -0.000000 0.000000 0.000000 0.000000 0.000000 0.000000 -0.834137 -0.024771 0.037995 -0.042465 1.204556 0.073319 -10.023302 6.075728 -0.016558 9.959934 -7.242242 0.933069 0.000000 0.000000 0.000000 0.000000 0.000000 0.000000 -1.653406 0.397311 -0.074223 -0.337163 -3.035051 0.094514 3.124606 0.108717 -0.139113 -0.698252 4.950907 0.041291 0.000000 0.000000 0.000000 0.000000 0.000000 0.000000 1.018895 -3.452462 26.882024 2.264434 5.356954 -0.207365 -6.325838 -11.489240 -0.152380 0.000000 0.000000 0.000000 3.080300 8.169952 26.189852 -7.891628 -6.862406 -0.860079 -1.369498 -0.954305 1.280507 0.000000 0.000000 0.000000
-75.765086 82.687976 334.668088 0.707186 -0.460476 -26.028096 0.166524 -0.107469 26.062353 0.040842 -0.106309 0.046191 -0.849597 0.737532 -0.070782 0.000000 0.000000 0.000000 -2.088710 0.894059 -0.039071 -0.011088 1.918953 0.157347 -13.287498 8.201688 0.266503 13.454248 -9.718337 1.474374 0.000000 0.000000 0.000000 0.000000 0.000000 0.000000 -3.086305 1.123426 -0.175645 -0.498288 -4.181487 0.091340 4.407491 -0.003802 -0.181640 -1.125176 7.101530 0.061810 0.000000 0.000000 0.000000 0.000000 0.000000 0.000000 1.590660 -4.908757 26.903672 3.061044 7.805145 -0.414594 -9.693778 -17.830458 -0.629354 0.000000 0.000000 0.000000 4.328103 11.074733 25.750862 -10.489674 -9.003538 -1.240150 -1.700622 -1.258827 1.338909 0.000000 0.000000 0.000000
-76.617314 82.626979 334.841698 0.903971 -0.609545 -25.764759 0.194647 -0.127720 25.809541 0.046384 -0.124592 0.058079 -1.068685 0.935522 -0.087338 0.000000 0.000000 0.000000 -2.704263 1.401353 -0.092830 0.050040 2.708728 0.273645 -15.851148 9.955422 0.604968 16.425178 -11.647577 2.049801 0.000000 0.000000 0.000000 0.000000 0.000000 0.000000 -3.727277 1.167047 -0.255194 -0.667713 -5.087429 0.071265 5.518778 -0.230417 -0.193356 -1.605324 9.052917 0.089672 0.000000 0.000000 0.000000 0.000000 0.000000 0.000000 2.198081 -6.171987 26.896913 3.609661 10.080706 -0.655936 -13.209027 -24.361485 -1.483849 0.000000 0.000000 0.000000 5.351567 13.172630 25.284148 -12.145215 -10.295034 -1.429493 -1.784562 -1.415393 1.005875 0.000000 0.000000 0.000000
-77.394398 82.551351 335.015699 1.081340 -0.756428 -25.495041 0.209368 -0.139954 25.549643 0.047962 -0.134431 0.068149 -1.256012 1.109735 -0.100932 0.000000 0.000000 0.000000 -3.279171 2.013668 -0.166350 0.136997 3.576072 0.422874 -17.917393 11.467864 0.968761 19.087894 -13.126283 2.680389 0.000000 0.000000 0.000000 0.000000 0.000000 0.000000 -4.175261 1.044743 -0.352403 -0.854621 -5.758517 0.043726 6.469536 -0.576586 -0.165842 -2.141591 10.817014 0.129593 0.000000 0.000000 0.000000 0.000000 0.000000 0.000000 2.837019 -7.235984 26.856827 3.891323 12.173406 -0.905855 -16.871207 -30.851962 -2.792648 0.000000 0.000000 0.000000 6.132817 14.481811 24.832367 -12.843483 -10.757318 -1.363883 -1.619982 -1.428673 0.280900 0.000000 0.000000 0.000000
